# xmcd CD database file
# Copyright (C) 1995-1998 Ti Kan
#
# Track frame offsets:
#	150
#	22687
#	38232
#	61125
#	73169
#	98782
#	113590
#	129788
#	151092
#	166890
#	177973
#	195656
#	227026
#	243094
#
# Disc length: 3435 seconds
#
# Revision: 1
# Processed by: cddbd v1.4b41PL1 Copyright (c) Steve Scherf et al.
# Submitted via: CDex 1.30
#
DISCID=a00d690e
DTITLE=B. B. King - Forever Gold
DYEAR=1999
DGENRE=Blues
TTITLE0=The Thrill Is Gone
TTITLE1=How Blue Can You Get
TTITLE2=Everyday I Have The Blues
TTITLE3=Paying The Cost To Be The Boss
TTITLE4=Guess Who
TTITLE5=Mr. Pawnbroker
TTITLE6=It's My Own Fault Baby
TTITLE7=You Done Lost Your Good Thing Now
TTITLE8=The Letter
TTITLE9=Catfish Blues
TTITLE10=That Evil Child
TTITLE11=Outside Help
TTITLE12=Long Nights
TTITLE13=The Other Night Blues
EXTD=\nYEAR: 1999  ID3G:   0
EXTT0=
EXTT1=
EXTT2=
EXTT3=
EXTT4=
EXTT5=
EXTT6=
EXTT7=
EXTT8=
EXTT9=
EXTT10=
EXTT11=
EXTT12=
EXTT13=
PLAYORDER=
